<svg xmlns:dc="http://purl.org/dc/elements/1.1/" xmlns:cc="http://creativecommons.org/ns#"
   xmlns:rdf="http://www.w3.org/1999/02/22-rdf-syntax-ns#" xmlns:svg="http://www.w3.org/2000/svg"
   xmlns="http://www.w3.org/2000/svg" xmlns:sodipodi="http://sodipodi.sourceforge.net/DTD/sodipodi-0.dtd"
   xmlns:inkscape="http://www.inkscape.org/namespaces/inkscape" inkscape:export-ydpi="576" inkscape:export-xdpi="576"
   inkscape:export-filename="D:\Project Real\adnan #2.2\export Flat\PNG\16 - Vacuum Cleaner.png" width="64pt"
   height="64pt" viewBox="0 0 22.577778 22.577778" version="1.1" id="svg831"
   inkscape:version="1.0 (4035a4fb49, 2020-05-01)" sodipodi:docname="17 - Fire Exit.svg">
   <defs id="defs825">
      <pattern id="EMFhbasepattern" patternUnits="userSpaceOnUse" width="6" height="6" x="0" y="0" />
      <pattern id="EMFhbasepattern-9" patternUnits="userSpaceOnUse" width="6" height="6" x="0" y="0" />
      <pattern id="EMFhbasepattern-0" patternUnits="userSpaceOnUse" width="6" height="6" x="0" y="0" />
      <pattern id="EMFhbasepattern-7" patternUnits="userSpaceOnUse" width="6" height="6" x="0" y="0" />
      <pattern id="EMFhbasepattern-2" patternUnits="userSpaceOnUse" width="6" height="6" x="0" y="0" />
      <pattern id="EMFhbasepattern-98" patternUnits="userSpaceOnUse" width="6" height="6" x="0" y="0" />
      <pattern id="EMFhbasepattern-6" patternUnits="userSpaceOnUse" width="6" height="6" x="0" y="0" />
      <pattern id="EMFhbasepattern-01" patternUnits="userSpaceOnUse" width="6" height="6" x="0" y="0" />
      <pattern id="EMFhbasepattern-07" patternUnits="userSpaceOnUse" width="6" height="6" x="0" y="0" />
      <pattern id="EMFhbasepattern-8" patternUnits="userSpaceOnUse" width="6" height="6" x="0" y="0" />
      <pattern id="EMFhbasepattern-4" patternUnits="userSpaceOnUse" width="6" height="6" x="0" y="0" />
      <pattern id="EMFhbasepattern-40" patternUnits="userSpaceOnUse" width="6" height="6" x="0" y="0" />
      <pattern id="EMFhbasepattern-08" patternUnits="userSpaceOnUse" width="6" height="6" x="0" y="0" />
      <pattern id="EMFhbasepattern-04" patternUnits="userSpaceOnUse" width="6" height="6" x="0" y="0" />
      <pattern id="EMFhbasepattern-014" patternUnits="userSpaceOnUse" width="6" height="6" x="0" y="0" />
      <pattern id="EMFhbasepattern-27" patternUnits="userSpaceOnUse" width="6" height="6" x="0" y="0" />
      <pattern id="EMFhbasepattern-09" patternUnits="userSpaceOnUse" width="6" height="6" x="0" y="0" />
      <pattern id="EMFhbasepattern-5" patternUnits="userSpaceOnUse" width="6" height="6" x="0" y="0" />
      <pattern id="EMFhbasepattern-018" patternUnits="userSpaceOnUse" width="6" height="6" x="0" y="0" />
   </defs>
   <sodipodi:namedview id="base" pagecolor="#ffffff" bordercolor="#666666" borderopacity="1.0"
      inkscape:pageopacity="0.0" inkscape:pageshadow="2" inkscape:zoom="6.2578125" inkscape:cx="42.666667"
      inkscape:cy="42.666667" inkscape:document-units="pt" inkscape:current-layer="layer1" showgrid="false" units="pt"
      inkscape:window-width="1366" inkscape:window-height="706" inkscape:window-x="-8" inkscape:window-y="-8"
      inkscape:window-maximized="1" inkscape:pagecheckerboard="true" inkscape:showpageshadow="false"
      inkscape:object-paths="true" inkscape:snap-intersection-paths="true" inkscape:snap-smooth-nodes="true"
      inkscape:snap-midpoints="true" showguides="true" inkscape:snap-bbox="true" inkscape:bbox-nodes="true"
      inkscape:snap-nodes="false" inkscape:snap-global="true" inkscape:document-rotation="0">
      <inkscape:grid type="xygrid" id="grid1378" />
      <sodipodi:guide position="0.97013831,21.607643" orientation="78.000048,0" id="guide1380"
         inkscape:locked="false" />
      <sodipodi:guide position="0.97013831,0.97013129" orientation="0,78.000005" id="guide1382"
         inkscape:locked="false" />
      <sodipodi:guide position="21.607639,0.97013129" orientation="-78.000048,0" id="guide1384"
         inkscape:locked="false" />
      <sodipodi:guide position="21.607639,21.607643" orientation="0,-78.000005" id="guide1386"
         inkscape:locked="false" />
   </sodipodi:namedview>
   <metadata id="metadata828">
      <rdf:RDF>
         <cc:Work rdf:about="">
            <dc:format>image/svg+xml</dc:format>
            <dc:type rdf:resource="http://purl.org/dc/dcmitype/StillImage" />
            <dc:title></dc:title>
         </cc:Work>
      </rdf:RDF>
   </metadata>
   <g inkscape:label="Icon" inkscape:groupmode="layer" id="layer1" transform="translate(0,-274.42223)">
      <g transform="matrix(1.2580733,0,0,1.2580733,39.023388,-77.295609)" style="display:inline;stroke-width:0.794866"
         id="g1143">
         <path
            style="color:#000000;font-style:normal;font-variant:normal;font-weight:normal;font-stretch:normal;font-size:medium;line-height:normal;font-family:sans-serif;font-variant-ligatures:normal;font-variant-position:normal;font-variant-caps:normal;font-variant-numeric:normal;font-variant-alternates:normal;font-variant-east-asian:normal;font-feature-settings:normal;font-variation-settings:normal;text-indent:0;text-align:start;text-decoration:none;text-decoration-line:none;text-decoration-style:solid;text-decoration-color:#000000;letter-spacing:normal;word-spacing:normal;text-transform:none;writing-mode:lr-tb;direction:ltr;text-orientation:mixed;dominant-baseline:auto;baseline-shift:baseline;text-anchor:start;white-space:normal;shape-padding:0;shape-margin:0;inline-size:0;clip-rule:nonzero;display:inline;overflow:visible;visibility:visible;isolation:auto;mix-blend-mode:normal;color-interpolation:sRGB;color-interpolation-filters:linearRGB;solid-color:#000000;solid-opacity:1;vector-effect:none;fill:#f5f6e8;fill-opacity:1;fill-rule:nonzero;stroke:none;stroke-width:0.391573;stroke-linecap:round;stroke-linejoin:round;stroke-miterlimit:1.5;stroke-dasharray:none;stroke-dashoffset:0;stroke-opacity:1;color-rendering:auto;image-rendering:auto;shape-rendering:auto;text-rendering:auto;enable-background:accumulate;stop-color:#000000"
            d="m -23.029297,283.63867 a 0.24633864,0.24633864 0 0 0 -0.246094,0.2461 v 3.86523 1.04492 6.55664 a 0.24633864,0.24633864 0 0 0 0.246094,0.2461 h 4.351563 a 0.24633864,0.24633864 0 0 0 0.246093,-0.2461 l 0.01367,-11.46484 a 0.24633864,0.24633864 0 0 0 -0.246093,-0.24805 z"
            id="path2295" />
         <path id="path2334"
            style="fill:#deded2;fill-opacity:1;stroke:none;stroke-width:1.58973;stroke-linecap:round;stroke-linejoin:round;stroke-miterlimit:1.5;stroke-opacity:1"
            d="m -87.039062,13.5 a 0.93104367,0.93104367 0 0 0 -0.931641,0.929688 v 4.597656 c 14.808677,-0.356971 10.022624,28.745488 13.037109,39.671875 h 4.339844 a 0.93104367,0.93104367 0 0 0 0.931641,-0.929688 L -69.611328,14.4375 A 0.93104367,0.93104367 0 0 0 -70.541016,13.5 Z"
            transform="matrix(0.26458334,0,0,0.26458334,0,280.06666)" />
         <path
            style="color:#000000;font-style:normal;font-variant:normal;font-weight:normal;font-stretch:normal;font-size:medium;line-height:normal;font-family:sans-serif;font-variant-ligatures:normal;font-variant-position:normal;font-variant-caps:normal;font-variant-numeric:normal;font-variant-alternates:normal;font-variant-east-asian:normal;font-feature-settings:normal;font-variation-settings:normal;text-indent:0;text-align:start;text-decoration:none;text-decoration-line:none;text-decoration-style:solid;text-decoration-color:#000000;letter-spacing:normal;word-spacing:normal;text-transform:none;writing-mode:lr-tb;direction:ltr;text-orientation:mixed;dominant-baseline:auto;baseline-shift:baseline;text-anchor:start;white-space:normal;shape-padding:0;shape-margin:0;inline-size:0;clip-rule:nonzero;display:inline;overflow:visible;visibility:visible;isolation:auto;mix-blend-mode:normal;color-interpolation:sRGB;color-interpolation-filters:linearRGB;solid-color:#000000;solid-opacity:1;vector-effect:none;fill:#dc1c4b;fill-opacity:1;fill-rule:nonzero;stroke:none;stroke-width:0.391573;stroke-linecap:round;stroke-linejoin:round;stroke-miterlimit:1.5;stroke-dasharray:none;stroke-dashoffset:0;stroke-opacity:1;color-rendering:auto;image-rendering:auto;shape-rendering:auto;text-rendering:auto;enable-background:accumulate;stop-color:#000000"
            d="m -18.685547,282.49414 a 0.24633864,0.24633864 0 0 0 -0.224609,0.24414 v 13.75977 a 0.24633864,0.24633864 0 0 0 0.30664,0.23828 l 4.498047,-1.14649 a 0.24633864,0.24633864 0 0 0 0.185547,-0.23828 v -11.46679 a 0.24633864,0.24633864 0 0 0 -0.185547,-0.23829 L -18.603516,282.5 a 0.24633864,0.24633864 0 0 0 -0.08203,-0.006 z"
            id="path2281" />
         <path
            style="color:#000000;font-style:normal;font-variant:normal;font-weight:normal;font-stretch:normal;font-size:medium;line-height:normal;font-family:sans-serif;font-variant-ligatures:normal;font-variant-position:normal;font-variant-caps:normal;font-variant-numeric:normal;font-variant-alternates:normal;font-variant-east-asian:normal;font-feature-settings:normal;font-variation-settings:normal;text-indent:0;text-align:start;text-decoration:none;text-decoration-line:none;text-decoration-style:solid;text-decoration-color:#000000;letter-spacing:normal;word-spacing:normal;text-transform:none;writing-mode:lr-tb;direction:ltr;text-orientation:mixed;dominant-baseline:auto;baseline-shift:baseline;text-anchor:start;white-space:normal;shape-padding:0;shape-margin:0;inline-size:0;clip-rule:nonzero;display:inline;overflow:visible;visibility:visible;isolation:auto;mix-blend-mode:normal;color-interpolation:sRGB;color-interpolation-filters:linearRGB;solid-color:#000000;solid-opacity:1;vector-effect:none;fill:#dc1c4b;fill-opacity:1;fill-rule:nonzero;stroke:none;stroke-width:0.420617;stroke-linecap:round;stroke-linejoin:round;stroke-miterlimit:1.5;stroke-dasharray:none;stroke-dashoffset:0;stroke-opacity:1;color-rendering:auto;image-rendering:auto;shape-rendering:auto;text-rendering:auto;enable-background:accumulate;stop-color:#000000"
            d="m -22.103516,280.35742 a 0.26460996,0.26460996 0 0 0 -0.263672,0.26563 v 2.11523 a 0.26460996,0.26460996 0 0 0 0.263672,0.26563 h 2.09375 a 0.26460996,0.26460996 0 0 0 0.1875,-0.0762 l 1.080078,-1.06445 a 0.26460996,0.26460996 0 0 0 0.07813,-0.18945 v -1.05078 a 0.26460996,0.26460996 0 0 0 -0.263672,-0.26563 z"
            id="path2267" />
         <path
            style="color:#000000;font-style:normal;font-variant:normal;font-weight:normal;font-stretch:normal;font-size:medium;line-height:normal;font-family:sans-serif;font-variant-ligatures:normal;font-variant-position:normal;font-variant-caps:normal;font-variant-numeric:normal;font-variant-alternates:normal;font-variant-east-asian:normal;font-feature-settings:normal;font-variation-settings:normal;text-indent:0;text-align:start;text-decoration:none;text-decoration-line:none;text-decoration-style:solid;text-decoration-color:#000000;letter-spacing:normal;word-spacing:normal;text-transform:none;writing-mode:lr-tb;direction:ltr;text-orientation:mixed;dominant-baseline:auto;baseline-shift:baseline;text-anchor:start;white-space:normal;shape-padding:0;shape-margin:0;inline-size:0;clip-rule:nonzero;display:inline;overflow:visible;visibility:visible;isolation:auto;mix-blend-mode:normal;color-interpolation:sRGB;color-interpolation-filters:linearRGB;solid-color:#000000;solid-opacity:1;vector-effect:none;fill:#aabfd0;fill-opacity:1;fill-rule:nonzero;stroke:none;stroke-width:0.420617;stroke-linecap:round;stroke-linejoin:round;stroke-miterlimit:1.5;stroke-dasharray:none;stroke-dashoffset:0;stroke-opacity:1;color-rendering:auto;image-rendering:auto;shape-rendering:auto;text-rendering:auto;enable-background:accumulate;stop-color:#000000"
            d="m -25.402344,284.04492 c -0.727496,0 -1.324223,0.59477 -1.324218,1.32227 2e-6,0.72749 0.596727,1.32226 1.324218,1.32226 0.727491,0 1.322264,-0.59477 1.322266,-1.32226 4e-6,-0.7275 -0.59477,-1.32227 -1.322266,-1.32227 z"
            id="path2225" />
         <path
            style="color:#000000;font-style:normal;font-variant:normal;font-weight:normal;font-stretch:normal;font-size:medium;line-height:normal;font-family:sans-serif;font-variant-ligatures:normal;font-variant-position:normal;font-variant-caps:normal;font-variant-numeric:normal;font-variant-alternates:normal;font-variant-east-asian:normal;font-feature-settings:normal;font-variation-settings:normal;text-indent:0;text-align:start;text-decoration:none;text-decoration-line:none;text-decoration-style:solid;text-decoration-color:#000000;letter-spacing:normal;word-spacing:normal;text-transform:none;writing-mode:lr-tb;direction:ltr;text-orientation:mixed;dominant-baseline:auto;baseline-shift:baseline;text-anchor:start;white-space:normal;shape-padding:0;shape-margin:0;inline-size:0;clip-rule:nonzero;display:inline;overflow:visible;visibility:visible;isolation:auto;mix-blend-mode:normal;color-interpolation:sRGB;color-interpolation-filters:linearRGB;solid-color:#000000;solid-opacity:1;vector-effect:none;fill:#aabfd0;fill-opacity:1;fill-rule:nonzero;stroke:none;stroke-width:0.420617;stroke-linecap:round;stroke-linejoin:round;stroke-miterlimit:1.5;stroke-dasharray:none;stroke-dashoffset:0;stroke-opacity:1;color-rendering:auto;image-rendering:auto;shape-rendering:auto;text-rendering:auto;enable-background:accumulate;stop-color:#000000"
            d="m -26.992188,286.95508 a 0.26460996,0.26460996 0 0 0 -0.03906,0.002 l -2.308594,0.35742 a 0.26460996,0.26460996 0 0 0 -0.208984,0.17188 l -0.576172,1.59179 c -0.136229,0.37527 0.04306,0.79758 0.408203,0.95899 l 0.160156,0.0703 c 0.367298,0.16236 0.805331,-0.022 0.945313,-0.39844 l 0.339844,-0.91601 0.505859,0.0801 -0.515625,3.11914 -1,-0.1836 c -0.395226,-0.0727 -0.776223,0.21345 -0.816406,0.61329 l -0.02344,0.24609 c -0.03986,0.39666 0.231725,0.76176 0.623047,0.83789 l 1.986328,0.38672 a 0.26460996,0.26460996 0 0 0 0.275391,-0.11719 l 0.669922,-1.06641 0.792968,0.0859 0.164063,1.98047 c 0.03329,0.39953 0.394046,0.70005 0.792969,0.66016 l 0.341797,-0.0332 c 0.398773,-0.0399 0.693466,-0.40429 0.65039,-0.80273 l -0.330078,-3.05664 a 0.26460996,0.26460996 0 0 0 -0.212891,-0.23047 l -1.367187,-0.26172 0.416016,-1.46484 0.640625,0.51172 a 0.26460996,0.26460996 0 0 0 0.318359,0.01 l 1.650391,-1.1875 c 0.323799,-0.23273 0.418286,-0.68048 0.214843,-1.02344 l -0.07031,-0.11718 c -0.205182,-0.34589 -0.674902,-0.43928 -0.996094,-0.19727 l -0.849609,0.64063 -0.824219,-0.67774 a 0.26460996,0.26460996 0 0 0 -0.08398,-0.0469 l -1.587891,-0.5293 a 0.26460996,0.26460996 0 0 0 -0.08594,-0.0137 z"
            id="path2239" />
         <path
            style="color:#000000;font-style:normal;font-variant:normal;font-weight:normal;font-stretch:normal;font-size:medium;line-height:normal;font-family:sans-serif;font-variant-ligatures:normal;font-variant-position:normal;font-variant-caps:normal;font-variant-numeric:normal;font-variant-alternates:normal;font-variant-east-asian:normal;font-feature-settings:normal;font-variation-settings:normal;text-indent:0;text-align:start;text-decoration:none;text-decoration-line:none;text-decoration-style:solid;text-decoration-color:#000000;letter-spacing:normal;word-spacing:normal;text-transform:none;writing-mode:lr-tb;direction:ltr;text-orientation:mixed;dominant-baseline:auto;baseline-shift:baseline;text-anchor:start;white-space:normal;shape-padding:0;shape-margin:0;inline-size:0;clip-rule:nonzero;display:inline;overflow:visible;visibility:visible;isolation:auto;mix-blend-mode:normal;color-interpolation:sRGB;color-interpolation-filters:linearRGB;solid-color:#000000;solid-opacity:1;vector-effect:none;fill:#dc1c4b;fill-opacity:1;fill-rule:nonzero;stroke:none;stroke-width:0.420617;stroke-linecap:round;stroke-linejoin:round;stroke-miterlimit:1.5;stroke-dasharray:none;stroke-dashoffset:0;stroke-opacity:1;color-rendering:auto;image-rendering:auto;shape-rendering:auto;text-rendering:auto;enable-background:accumulate;stop-color:#000000"
            d="m -25.443359,280.33984 a 0.26460996,0.26460996 0 0 0 -0.25586,0.26563 v 0.5293 h -1.851562 a 0.26460996,0.26460996 0 0 0 -0.265625,0.26367 v 1.05859 a 0.26460996,0.26460996 0 0 0 0.265625,0.26367 h 1.851562 v 0.5293 a 0.26460996,0.26460996 0 0 0 0.451172,0.1875 l 1.324219,-1.32227 a 0.26460996,0.26460996 0 0 0 0,-0.375 l -1.324219,-1.32226 a 0.26460996,0.26460996 0 0 0 -0.195312,-0.0781 z"
            id="path2253" />
         <path id="path2314"
            style="fill:#7d8e9e;fill-opacity:1;stroke:none;stroke-width:1.58973;stroke-linecap:round;stroke-linejoin:round;stroke-miterlimit:1.5;stroke-opacity:1"
            d="m -96.009766,15.035156 c -2.574985,0 -4.714974,1.971731 -4.976564,4.480469 4.67201,-2.238223 4.761393,1.655696 8.316408,4.205078 1.010607,-0.915953 1.658199,-2.223815 1.658203,-3.6875 1.5e-5,-2.749606 -2.248455,-4.998047 -4.998047,-4.998047 z"
            transform="matrix(0.26458334,0,0,0.26458334,0,280.06666)" />
         <path id="path2319"
            style="fill:#b41d48;fill-opacity:1;stroke:none;stroke-width:1.58973;stroke-linecap:round;stroke-linejoin:round;stroke-miterlimit:1.5;stroke-opacity:1"
            d="m -96.164062,1.0332031 a 1.0001006,1.0001006 0 0 0 -0.966797,1.0039063 v 0.7675781 c 2.519476,0.5612572 3.05513,5.0537809 4.050781,7.5937505 l 2.660156,-2.6562505 a 1.0001006,1.0001006 0 0 0 0,-1.4160156 L -95.425781,1.328125 a 1.0001006,1.0001006 0 0 0 -0.738281,-0.2949219 z"
            transform="matrix(0.26458334,0,0,0.26458334,0,280.06666)" />
         <path id="path2324"
            style="fill:#b41d48;fill-opacity:1;stroke:none;stroke-width:1.58973;stroke-linecap:round;stroke-linejoin:round;stroke-miterlimit:1.5;stroke-opacity:1"
            d="m -83.541016,1.0996094 a 1.0001006,1.0001006 0 0 0 -0.996093,1.0039062 v 1.4394532 c 1.692686,-0.049132 3.485357,-0.4909661 5.066406,-0.095703 3.579772,0.8949459 4.690527,3.6539926 7,4.953125 l 1.634765,-1.609375 A 1.0001006,1.0001006 0 0 0 -70.541016,6.074219 V 2.1035156 a 1.0001006,1.0001006 0 0 0 -0.996093,-1.0039062 z"
            transform="matrix(0.26458334,0,0,0.26458334,0,280.06666)" />
         <path id="path2329"
            style="fill:#b41d48;fill-opacity:1;stroke:none;stroke-width:1.58973;stroke-linecap:round;stroke-linejoin:round;stroke-miterlimit:1.5;stroke-opacity:1"
            d="m -70.554688,9.1699219 a 0.93104367,0.93104367 0 0 0 -0.06836,0.00391 0.93104367,0.93104367 0 0 0 -0.847656,0.9238281 v 3.335938 c 17.109411,2.35547 11.39683,29.157753 12.6875,42.064453 0.119275,1.1927 0.493121,2.798331 1.130859,4.277344 l 4.339844,-1.105469 a 0.93104367,0.93104367 0 0 0 0.701172,-0.900391 V 14.429688 A 0.93104367,0.93104367 0 0 0 -53.3125,13.529297 l -17,-4.3320314 a 0.93104367,0.93104367 0 0 0 -0.242188,-0.027344 z"
            transform="matrix(0.26458334,0,0,0.26458334,0,280.06666)" />
         <path transform="matrix(0.26458334,0,0,0.26458334,0,280.06666)"
            d="m -94.71875,33.056641 c -2.034337,-0.230891 -5.5062,2.560228 -2.693359,5.373047 0.240012,0.240026 0.5356,0.411994 0.861328,0.578124 l 0.859375,-3.029296 1.507812,1.203125 c 1.344998,-2.811844 0.656154,-3.98979 -0.535156,-4.125 z"
            style="fill:#7d8e9e;fill-opacity:1;stroke-width:1.58973;stroke-linecap:round;stroke-linejoin:round;stroke-miterlimit:1.5"
            id="path1109" />
         <path sodipodi:nodetypes="scccss" transform="matrix(0.26458334,0,0,0.26458334,0,280.06666)"
            d="m -98.595703,44.59375 c -1.599967,0.0738 -2.756357,2.484036 -2.038127,3.164161 0.0821,0.08215 3.221721,0.34951 3.221721,0.34951 l 0.160156,1.927734 c 0.740522,-1.401481 1.061983,-3.239312 0.537109,-4.289062 -0.435542,-0.871075 -1.153603,-1.185889 -1.880859,-1.152343 z"
            style="fill:#7d8e9e;fill-opacity:1;stroke-width:1.58973;stroke-linecap:round;stroke-linejoin:round;stroke-miterlimit:1.5"
            id="path1115" />
         <path transform="matrix(0.26458334,0,0,0.26458334,0,280.06666)"
            d="m -113.55078,49.220703 c 0.39495,0.791716 1.14115,1.394975 2.0625,1.574219 l 7.50781,1.460937 a 1.0001006,1.0001006 0 0 0 1.03906,-0.443359 l 0.36914,-0.587891 z"
            style="fill:#7d8e9e;fill-opacity:1;stroke-width:1.58973;stroke-linecap:round;stroke-linejoin:round;stroke-miterlimit:1.5"
            id="path1124" />
      </g>
   </g>
</svg>